<svg width="1346" height="818" viewBox="0 0 1346 818" fill="none" xmlns="http://www.w3.org/2000/svg">
<rect opacity="0.7" x="0.937988" y="0.229004" width="210.877" height="351.462" rx="26.3596" fill="#D9D9D9"/>
<rect opacity="0.7" x="233.782" y="0.228943" width="210.877" height="351.462" rx="26.3596" fill="#D9D9D9"/>
<rect opacity="0.7" x="466.625" y="0.228943" width="412.968" height="210.877" rx="26.3596" fill="#D9D9D9"/>
<rect opacity="0.7" x="900.681" y="0.228943" width="210.877" height="210.877" rx="26.3596" fill="#D9D9D9"/>
<rect opacity="0.7" x="1133.52" y="0.228943" width="210.877" height="351.462" rx="26.3596" fill="#D9D9D9"/>
<path opacity="0.7" d="M0.937988 400.017C0.937988 385.459 12.7396 373.657 27.2976 373.657H418.299C432.857 373.657 444.659 385.459 444.659 400.017V558.175C444.659 572.733 432.857 584.535 418.299 584.535H27.2976C12.7396 584.535 0.937988 572.733 0.937988 558.175V400.017Z" fill="#D9D9D9"/>
<rect opacity="0.7" x="901.559" y="233.073" width="210.877" height="351.462" rx="26.3596" fill="#D9D9D9"/>
<rect opacity="0.7" x="1133.52" y="373.657" width="210.877" height="210.877" rx="26.3596" fill="#D9D9D9"/>
<rect opacity="0.7" x="0.937988" y="606.501" width="180.124" height="210.877" rx="26.3596" fill="#D9D9D9"/>
<path opacity="0.7" d="M203.028 632.861C203.028 618.303 214.83 606.501 229.388 606.501H620.39C634.948 606.501 646.749 618.303 646.749 632.861V791.019C646.749 805.577 634.948 817.378 620.39 817.378H229.388C214.83 817.378 203.028 805.577 203.028 791.019V632.861Z" fill="#D9D9D9"/>
<rect opacity="0.7" x="668.716" y="606.501" width="210.877" height="210.877" rx="26.3596" fill="#D9D9D9"/>
<path opacity="0.7" d="M901.559 632.861C901.559 618.303 913.361 606.501 927.919 606.501H1318.92C1333.48 606.501 1345.28 618.303 1345.28 632.861V791.019C1345.28 805.577 1333.48 817.378 1318.92 817.378H927.919C913.361 817.378 901.559 805.577 901.559 791.019V632.861Z" fill="#D9D9D9"/>
</svg>
