<svg width="44" height="43" viewBox="0 0 44 43" fill="none" xmlns="http://www.w3.org/2000/svg">
<rect x="0.493652" y="0.132202" width="42.7188" height="42.7188" rx="21.3594" fill="white"/>
<path d="M18.9525 20.9716C18.2484 20.9716 17.5601 21.1804 16.9747 21.5716C16.3893 21.9627 15.933 22.5187 15.6636 23.1692C15.3941 23.8197 15.3236 24.5354 15.461 25.226C15.5983 25.9165 15.9374 26.5509 16.4352 27.0487C16.9331 27.5466 17.5674 27.8856 18.258 28.023C18.9485 28.1603 19.6643 28.0899 20.3148 27.8204C20.9653 27.551 21.5213 27.0947 21.9124 26.5093C22.3036 25.9238 22.5124 25.2356 22.5124 24.5315V13.8518C22.5124 15.032 22.9812 16.1638 23.8157 16.9983C24.6502 17.8329 25.7821 18.3017 26.9622 18.3017" stroke="#282828" stroke-width="1.33496" stroke-linecap="round" stroke-linejoin="round"/>
</svg>
